#!OML:ASF X:\für Bonn\!DataBase\2005_08_11_Bastian_Final\c3d\Bastian.ASF
:FULLY-SPECIFIED
:DEGREES
49
root -26.1552 16.9472 23.1549 354.426 -239.912 7.90112
lowerback 14.5549 -2.4311 0.348029
upperback 8.52534 -2.49015 -0.30556
thorax 0.812325 -0.938201 -0.174593
lowerneck -9.63472 -0.570523 -2.56943
upperneck 6.68887 -0.829106 4.8411
head 3.98476 -0.238506 2.04374
rclavicle 5.70512e-014 -1.11319e-014
rhumerus -36.5608 -8.31583 -68.6966
rradius 55.9826
rwrist 3.02535
rhand -28.5946 4.35025
rfingers 7.12502
rthumb -1.96013 -25.6205
lclavicle 5.70512e-014 -1.11319e-014
lhumerus -13.7561 -5.27996 80.8722
lradius 66.2849
lwrist 41.7932
lhand -13.9549 -13.6752
lfingers 7.12502
lthumb 12.1726 15.9506
rfemur 3.93392 -3.92495 27.1504
rtibia 37.6372
rfoot -16.4246 -5.34438
rtoes 22.5691
lfemur -18.6827 15.9307 -9.53163
ltibia 79.6301
lfoot -6.39387 -6.34885
ltoes -27.278
50
root -26.0795 16.9524 23.0996 354.36 -240.272 8.02053
lowerback 14.677 -2.35251 0.427174
upperback 8.53152 -2.37416 -0.336299
thorax 0.750397 -0.875528 -0.263072
lowerneck -9.38836 -0.502217 -2.52642
upperneck 6.77969 -0.733432 4.64265
head 3.96023 -0.202271 1.97271
rclavicle -1.22253e-014 1.03368e-014
rhumerus -35.6613 -7.97169 -67.5459
rradius 57.4974
rwrist 3.50376
rhand -28.779 4.17122
rfingers 7.12502
rthumb -2.13828 -25.7978
lclavicle -1.22253e-014 1.03368e-014
lhumerus -12.7766 -5.11998 79.7656
lradius 66.948
lwrist 41.9389
lhand -14.1019 -13.7365
lfingers 7.12502
lthumb 12.0309 15.8977
rfemur 4.79979 -3.57592 27.2078
rtibia 37.038
rfoot -16.462 -5.37612
rtoes 22.3846
lfemur -19.8918 15.9262 -9.78058
ltibia 79.262
lfoot -7.25142 -6.78273
ltoes -28.7452
51
root -26.0012 16.9591 23.0437 354.238 -240.597 8.0608
lowerback 14.788 -2.26319 0.466274
upperback 8.51889 -2.25107 -0.372161
thorax 0.67636 -0.811622 -0.335911
lowerneck -9.06648 -0.448236 -2.51886
upperneck 6.83736 -0.653542 4.46198
head 3.91052 -0.174671 1.91223
rclavicle 4.05521e-014 0
rhumerus -34.7006 -7.58973 -66.3148
rradius 59.0205
rwrist 3.9416
rhand -28.8271 3.85494
rfingers 7.12502
rthumb -2.18471 -26.1136
lclavicle 4.05521e-014 0
lhumerus -11.78 -4.97208 78.6046
lradius 67.5888
lwrist 42.1636
lhand -14.2051 -13.7544
lfingers 7.12502
lthumb 11.9313 15.8856
rfemur 5.67678 -3.20822 27.2358
rtibia 36.4031
rfoot -16.4833 -5.44081
rtoes 22.2604
lfemur -21.0721 15.8757 -10.1003
ltibia 78.7275
lfoot -8.19191 -7.07117
ltoes -30.4281
52
root -25.9202 16.9653 22.9869 354.192 -240.922 8.17906
lowerback 14.8644 -2.18433 0.548845
upperback 8.52217 -2.13587 -0.412034
thorax 0.635925 -0.749663 -0.437834
lowerneck -8.78223 -0.394252 -2.50451
upperneck 6.90862 -0.575686 4.30201
head 3.87372 -0.145983 1.85809
rclavicle 4.03533e-014 1.82882e-014
rhumerus -33.5976 -7.17385 -65.0566
rradius 60.5095
rwrist 4.34016
rhand -28.7409 3.50284
rfingers 7.12502
rthumb -2.10151 -26.4666
lclavicle 4.03533e-014 1.82882e-014
lhumerus -10.7521 -4.81724 77.3353
lradius 68.2468
lwrist 42.4081
lhand -14.3063 -13.7143
lfingers 7.12502
lthumb 11.8338 15.9313
rfemur 6.56464 -2.87316 27.3002
rtibia 35.7373
rfoot -16.4958 -5.48764
rtoes 22.0877
lfemur -22.1858 15.8141 -10.3699
ltibia 78.0371
lfoot -9.14213 -7.24696
ltoes -32.0232
53
root -25.8364 16.9717 22.9292 354.127 -241.24 8.25417
lowerback 14.9057 -2.09858 0.583942
upperback 8.51763 -2.01917 -0.428258
thorax 0.608857 -0.689949 -0.48973
lowerneck -8.42841 -0.336366 -2.52967
upperneck 6.94492 -0.485602 4.11329
head 3.8106 -0.114412 1.80103
rclavicle 2.5842e-015 -1.59028e-015
rhumerus -32.3878 -6.73774 -63.7284
rradius 61.97
rwrist 4.6785
rhand -28.5651 3.19906
rfingers 7.12502
rthumb -1.93165 -26.7719
lclavicle 2.5842e-015 -1.59028e-015
lhumerus -9.70944 -4.64131 76.0504
lradius 68.8579
lwrist 42.6499
lhand -14.4696 -13.6247
lfingers 7.12502
lthumb 11.6763 16.0299
rfemur 7.44463 -2.54957 27.3406
rtibia 35.0645
rfoot -16.5255 -5.51861
rtoes 21.8745
lfemur -23.2442 15.7371 -10.6611
ltibia 77.203
lfoot -9.97825 -7.34551
ltoes -32.9247
54
root -25.7512 16.975 22.8705 354.101 -241.552 8.38188
lowerback 14.9557 -2.01394 0.658338
upperback 8.51048 -1.89904 -0.452715
thorax 0.57306 -0.626994 -0.572712
lowerneck -8.07549 -0.287102 -2.58697
upperneck 6.99933 -0.410669 4.01173
head 3.75631 -0.0864393 1.7789
rclavicle 3.97569e-015 -7.15625e-015
rhumerus -31.0915 -6.29417 -62.3728
rradius 63.405
rwrist 4.9171
rhand -28.3777 2.9987
rfingers 7.12502
rthumb -1.75072 -26.9739
lclavicle 3.97569e-015 -7.15625e-015
lhumerus -8.68519 -4.46815 74.7196
lradius 69.4662
lwrist 42.8503
lhand -14.706 -13.5738
lfingers 7.12502
lthumb 11.4483 16.0937
rfemur 8.33277 -2.23582 27.4091
rtibia 34.4057
rfoot -16.5726 -5.57378
rtoes 21.8136
lfemur -24.2247 15.6643 -10.9113
ltibia 76.2423
lfoot -10.6825 -7.26971
ltoes -33.4368
55
root -25.6652 16.9766 22.8114 354.077 -241.847 8.50366
lowerback 15.0145 -1.93328 0.729509
upperback 8.49111 -1.78552 -0.478754
thorax 0.52016 -0.568028 -0.654509
lowerneck -7.70502 -0.243682 -2.65545
upperneck 7.06436 -0.343487 3.91628
head 3.70298 -0.0620859 1.76033
rclavicle 9.24349e-015 3.97569e-015
rhumerus -29.6717 -5.84535 -61.0014
rradius 64.7507
rwrist 5.07712
rhand -28.2119 2.89774
rfingers 7.12502
rthumb -1.59057 -27.0761
lclavicle 9.24349e-015 3.97569e-015
lhumerus -7.63621 -4.25982 73.356
lradius 70.0026
lwrist 43.0528
lhand -14.9686 -13.5533
lfingers 7.12502
lthumb 11.195 16.128
rfemur 9.19683 -1.92374 27.48
rtibia 33.79
rfoot -16.6456 -5.63024
rtoes 21.6674
lfemur -25.1409 15.6093 -11.1554
ltibia 75.1481
lfoot -11.1669 -7.0018
ltoes -33.3456
